<?xml version="1.0" encoding="UTF-8" standalone="no"?>
<!-- Created with Inkscape (http://www.inkscape.org/) -->

<svg
   width="170.35921mm"
   height="48.28754mm"
   viewBox="0 0 170.35921 48.28754"
   version="1.1"
   id="svg1"
   xml:space="preserve"
   xmlns="http://www.w3.org/2000/svg"
   xmlns:svg="http://www.w3.org/2000/svg"><defs
     id="defs1" /><g
     id="layer1"
     transform="translate(-22.134564,-223.98011)"><path
       style="fill:#5190d5;stroke:none"
       d="m 23.415844,224.15963 c -1.176547,0.42883 -1.234603,1.68598 -1.234603,2.73376 v 7.93673 26.27941 7.05487 c 0,0.92181 -0.218229,2.17766 0.289054,2.99832 0.651886,1.05459 1.964191,1.05823 3.062012,1.05823 h 7.760361 25.044803 7.054871 c 1.17548,0 2.59389,0.20973 3.70381,-0.25966 1.23564,-0.52255 1.2346,-1.77664 1.2346,-2.91503 v -7.58399 -26.80852 -6.8785 c 0,-0.98367 0.19221,-2.15438 -0.43603,-2.99342 -0.7237,-0.96654 -2.02737,-0.71039 -3.0914,-0.71039 H 59.042959 34.174527 26.76691 c -0.996,0 -2.408133,-0.2555 -3.351066,0.0882 m 133.337126,14.37429 c -3.14702,-0.84625 -4.52874,1.73165 -3.52744,4.4093 l 3.52744,-0.70549 c 0.0366,8.72134 0.61328,16.92602 -1.05823,25.57392 1.7678,0.8319 5.26809,1.30092 6.2759,-0.88186 0.91283,-1.97707 0.0735,-4.96143 0.0735,-7.05488 0,-5.89268 -0.17638,-11.74483 -0.17638,-17.63718 2.32256,0.1171 5.26408,1.29572 7.40272,-0.0686 1.01247,-0.64589 2.0502,-3.35524 0.6565,-4.20843 -0.52664,-0.3224 -1.67226,0.27238 -2.23894,0.35764 -1.94957,0.29334 -3.84796,0.39194 -5.82028,0.39194 0,-2.19542 0.37763,-5.70097 1.98419,-7.36843 1.28778,-1.33658 4.35215,-1.65463 5.51652,-0.0392 0.75045,1.0412 0.6124,2.31897 0.6124,3.52744 3.65884,0 7.07087,-3.98689 3.52744,-7.01568 -1.38238,-1.1816 -3.36682,-1.45016 -5.11479,-1.45016 -6.63854,0 -11.53139,5.67372 -11.64054,12.16965 m -10.75869,-11.57193 c -4.29914,0.74637 -3.16596,7.63128 1.41097,6.74132 2.41283,-0.46916 4.00732,-4.18419 2.10177,-6.08973 -0.86507,-0.86505 -2.38559,-0.84728 -3.51274,-0.65159 m -79.720088,0.98964 V 268.1644 H 26.237794 v -40.21278 h 40.036408 m 28.92499,25.92666 c -3.27935,0.39959 -6.24818,1.94009 -9.70046,1.94009 -0.83039,0 -2.469,0.24439 -3.1159,-0.41153 -0.82853,-0.84008 -0.41153,-4.2542 -0.41153,-5.40874 0,-5.09031 0.68213,-10.12233 0.70548,-15.16798 0.0132,-2.86091 0.74969,-6.28772 -3.17469,-6.68743 -0.73377,-0.0747 -3.32782,-0.1196 -3.64502,0.71039 -0.56195,1.47037 0.54943,4.55724 0.6418,6.15341 0.29057,5.02089 0.57816,10.54221 -0.24006,15.52073 -0.34567,2.10323 -0.28416,4.39098 -0.28416,6.52575 0,0.85586 -0.1361,1.80006 0.71039,2.30753 1.87134,1.12188 5.63095,0.6908 7.75546,0.6908 3.34245,0 11.03373,1.91504 11.18002,-3.35107 0.0269,-0.96641 -0.24027,-1.88514 -0.42133,-2.82195 M 31.352578,234.23731 c -2.465191,0.99645 -0.345906,3.59797 0.705487,4.64936 0.295578,0.29558 0.979844,0.7676 0.979844,1.23461 0,0.51522 -0.827596,1.08235 -1.156216,1.41097 -0.51521,0.51521 -1.244046,1.05725 -1.49916,1.76372 -0.546761,1.51411 0.75474,3.23289 2.38102,2.69457 1.66472,-0.55105 5.748941,-4.3247 5.428333,-6.22201 -0.334073,-1.97699 -4.646959,-6.41738 -6.839308,-5.53122 m 10.053195,0 c -0.827386,0.33444 -1.179182,1.16437 -1.229703,2.00379 -0.143753,2.38852 -0.575944,6.00244 0.117581,8.28947 0.351493,1.15912 1.534445,1.88624 2.699469,1.39628 0.681649,-0.28667 1.124295,-0.8351 1.219906,-1.57265 0.25044,-1.93193 0.0147,-4.04758 0.0147,-5.99664 0,-0.92896 0.192866,-2.11353 -0.127381,-2.99832 -0.385019,-1.06375 -1.654955,-1.54214 -2.694569,-1.12193 m 6.173015,-0.0294 c -1.719117,0.52252 -1.722257,3.18647 0,3.71361 0.992321,0.30373 2.319337,0.0833 3.351065,0.0833 h 6.702131 c 1.013966,0 2.605952,0.29847 3.527437,-0.16657 1.489258,-0.75159 1.434268,-3.35817 -0.352744,-3.69401 -2.732932,-0.51362 -6.033219,-0.0196 -8.818592,-0.0196 -1.340934,0 -3.122298,-0.30789 -4.409297,0.0833 m 64.552099,17.02478 c -0.0139,3.30453 -3.81088,7.30684 -7.23124,5.02659 -2.04315,-1.36209 -2.35636,-4.19938 -2.46921,-6.43757 4.16453,0.0175 9.17702,0.68468 12.33134,-2.82195 1.96307,-2.18234 1.72759,-6.50494 -0.51443,-8.42665 -1.79317,-1.537 -4.57841,-2.01717 -6.8785,-1.78822 -7.353,0.73191 -10.622818,7.38446 -10.234468,14.09505 0.21057,3.63853 1.18475,7.41251 4.943308,8.92638 3.84386,1.54822 9.14045,0.88268 12.16966,-2.05277 2.66559,-2.58308 1.89087,-6.52086 -2.11646,-6.52086 m 11.46417,8.81859 c 0.0651,-3.87363 1.89745,-7.1886 4.58567,-9.87682 1.35267,3.15633 3.86488,7.65569 6.8785,9.45549 2.56592,1.53242 5.76712,0.41025 5.82027,-2.75336 -3.04552,-0.62703 -5.14943,-3.70568 -6.69723,-6.17302 -0.38962,-0.6211 -1.53894,-2.05989 -1.38157,-2.82195 0.16355,-0.79202 1.49242,-1.50204 2.08216,-1.97438 1.87422,-1.50112 7.3845,-5.96884 2.99832,-8.03472 -0.46069,-0.21699 -0.91229,-0.32698 -1.41097,-0.40664 -0.95092,-0.15188 -1.85898,-0.16657 -2.82195,-0.16657 0,2.62646 -0.81883,5.73655 -3.1747,7.23125 -0.88091,-2.79539 -4.05804,-6.17019 -6.8785,-6.98629 -1.8592,-0.53796 -5.01113,0.0144 -4.92861,2.57209 0.0292,0.90349 1.62547,1.26812 2.28303,1.66084 1.64583,0.98292 2.95565,2.30529 4.12024,3.81159 0.29404,0.38031 0.98782,1.06389 0.93086,1.58734 -0.092,0.84584 -1.79436,1.85213 -2.40552,2.36143 -2.34666,1.95555 -8.86086,8.29398 -2.64558,10.09239 0.8831,0.25552 1.72638,0.42133 2.64558,0.42133 m 20.10639,-22.39923 c 0.0801,4.76643 1.31249,9.09055 0.46052,13.93338 -0.33586,1.90917 -1.43234,5.49629 -0.19596,7.22635 1.32444,1.85327 4.27539,1.22737 6.08483,0.71038 -0.84142,-4.35324 -1.12999,-8.46283 -0.69079,-12.87514 0.21369,-2.14681 1.52381,-5.79938 0.24986,-7.76036 -1.34181,-2.06546 -3.86803,-1.6204 -5.90846,-1.23461 m 28.2195,0.17638 c 1.01898,3.19097 1.42336,6.53036 1.2297,9.87682 -0.16401,2.83404 -0.73778,5.6621 0.0735,8.46585 1.33589,4.61682 6.82549,4.00668 9.80823,1.51876 1.81605,-1.5148 2.28301,-4.10477 3.88018,-5.57531 -0.46657,4.44171 -0.92513,9.72622 -3.7773,13.40426 -2.78746,3.59457 -6.30344,0.87854 -5.57041,-2.99832 -1.89916,-0.69424 -4.53082,0.55159 -4.89922,2.64557 -0.39715,2.25745 0.55207,4.21025 2.60638,5.24217 4.32728,2.17365 9.37968,0.0625 12.04718,-3.65482 3.8073,-5.30564 4.27746,-12.27258 4.89922,-18.51904 0.19317,-1.94078 0.0538,-3.8725 0.16657,-5.82028 0.0608,-1.05021 0.28335,-2.15709 -0.16656,-3.17469 -1.11529,-2.52254 -4.06573,-2.01726 -6.18772,-1.41097 1.0067,5.32432 0.49372,9.6069 -2.47411,14.28612 -0.85067,1.3412 -3.0141,4.55775 -4.92861,2.95422 -1.10143,-0.92252 -0.88676,-2.73361 -0.88676,-4.01245 0,-3.91041 3.55172,-13.81765 -2.99832,-13.75701 -0.96038,0.009 -1.90357,0.26672 -2.82195,0.52912 m -69.31414,8.46585 c 0,-1.32426 0.13674,-2.60149 0.50462,-3.88019 0.75361,-2.61937 5.88345,-2.53245 7.38802,-0.70058 0.71765,0.87376 0.98152,3.19965 -0.13718,3.86058 -0.52713,0.31143 -1.17208,0.45946 -1.75882,0.6075 -0.84503,0.21322 -1.59847,0.28906 -2.4692,0.28906 -1.19074,0 -2.35526,0.0453 -3.52744,-0.17637 m -55.028022,-4.14475 c -1.849689,0.6695 -1.6127,3.34256 0.176372,3.88508 2.747112,0.83304 6.823494,0.0833 9.700452,0.0833 1.109249,0 2.689886,0.28634 3.703809,-0.22536 1.534161,-0.77425 1.430201,-3.36612 -0.352744,-3.7871 -2.797362,-0.66049 -6.467475,-0.0441 -9.347708,-0.0441 -1.144485,0 -2.798068,-0.30348 -3.880181,0.0882 m -9.52408,7.91714 c -1.806528,0.35127 -2.610013,2.87978 -0.705487,3.79199 1.408628,0.67469 3.924849,0.19597 5.467527,0.19597 h 12.698774 c 1.564603,0 4.457396,0.55339 5.820271,-0.28905 1.925859,-1.19044 0.61077,-3.56485 -1.234603,-3.7528 -4.370053,-0.44511 -9.009301,-0.0147 -13.404261,-0.0147 -2.746189,0 -5.94783,-0.45533 -8.642221,0.0686 m -6.525758,8.1327 c -1.81393,0.65655 -1.578327,3.35298 0.176371,3.88508 2.747115,0.83304 6.823491,0.0833 9.700452,0.0833 1.109249,0 2.689884,0.28633 3.703809,-0.22537 1.53416,-0.77424 1.430207,-3.36612 -0.352743,-3.78709 -2.797366,-0.66049 -6.467475,-0.0441 -9.347709,-0.0441 -1.144486,0 -2.798067,-0.30349 -3.88018,0.0882 m 20.106391,0 c -1.795553,0.60411 -1.781142,2.93875 -0.176372,3.743 1.780679,0.8924 5.252744,0.22536 7.231246,0.22536 0.79373,0 1.73788,0.14372 2.469206,-0.22536 1.477341,-0.74557 1.452011,-3.15361 -0.176372,-3.743 -0.761928,-0.27578 -1.844148,-0.0882 -2.645578,-0.0882 -1.9626,0 -4.842766,-0.5374 -6.70213,0.0882 z"
       id="path1" /></g></svg>
