<?xml version="1.0" encoding="UTF-8" standalone="no"?>
<!-- Created with Inkscape (http://www.inkscape.org/) -->

<svg
   width="48.478104mm"
   height="73.791321mm"
   viewBox="0 0 48.478104 73.791321"
   version="1.1"
   id="svg1"
   xml:space="preserve"
   xmlns="http://www.w3.org/2000/svg"
   xmlns:svg="http://www.w3.org/2000/svg"><defs
     id="defs1" /><g
     id="layer1"
     transform="translate(-111.94664,-131.76785)"><path
       style="fill:#5391d4;stroke:none"
       d="m 113.62146,131.90478 c -1.51296,0.35372 -1.62755,1.59813 -1.62755,2.89751 v 7.69384 26.92842 6.95404 c 0,0.90795 -0.23448,2.18616 0.34113,2.95917 0.77896,1.0461 2.05929,0.88775 3.20987,0.88775 h 7.98976 24.11721 7.39792 c 1.15631,0 2.57516,0.2219 3.69896,-0.0617 1.35735,-0.34248 1.62754,-1.53609 1.62754,-2.74956 v -7.84179 -27.07638 -6.80609 c 0,-1.03995 0.19292,-2.23375 -0.50552,-3.10301 -0.76843,-0.95637 -2.10524,-0.7439 -3.19344,-0.7439 h -7.98975 -23.8213 -7.54588 c -1.16865,0 -2.5587,-0.20494 -3.69895,0.0617 m 42.61201,3.93322 v 40.39264 h -29.59168 -7.69383 l -2.76189,-0.10686 -0.19728,-2.11252 v -6.51017 -23.82129 -5.77038 l 0.19728,-1.96456 2.76189,-0.10686 h 7.69383 29.59168 m -34.62226,6.12794 c -2.94561,0.68186 -0.84615,3.53096 0.29591,4.67302 0.29552,0.29552 1.10628,0.85224 1.02749,1.33163 -0.079,0.48093 -0.84818,1.00436 -1.17544,1.33162 -0.56035,0.56035 -1.3185,1.13474 -1.55768,1.92346 -0.43723,1.44188 0.53522,3.03617 2.14951,2.77833 0.76328,-0.12191 1.25149,-0.62799 1.7755,-1.15079 1.19084,-1.18808 4.13457,-3.15415 3.98255,-5.03058 -0.11332,-1.39866 -1.73432,-2.48643 -2.65092,-3.40304 -0.99605,-0.99604 -2.21719,-2.8309 -3.84692,-2.45365 m 10.06117,0 c -0.73175,0.16939 -1.31173,0.66065 -1.44671,1.41794 -0.3477,1.95075 -0.0329,4.23134 -0.0329,6.21425 0,0.95285 -0.20854,2.19111 0.0699,3.10713 0.29225,0.96152 1.3387,1.49437 2.29747,1.29463 0.94411,-0.19669 1.46099,-0.98421 1.59466,-1.88647 0.28068,-1.89459 0.0329,-4.0022 0.0329,-5.91833 0,-0.98776 0.17412,-2.17381 -0.21783,-3.10713 -0.36481,-0.86869 -1.39455,-1.33103 -2.29746,-1.12202 m 6.06629,0 c -1.84897,0.43229 -2.19313,3.17415 -0.29592,3.85925 0.87031,0.31428 2.18746,0.074 3.10713,0.074 h 7.102 c 1.04082,0 2.60282,0.28947 3.551,-0.18906 1.74917,-0.88275 1.1576,-3.3392 -0.59183,-3.74417 -2.3297,-0.53928 -5.30019,-0.0616 -7.69384,-0.0616 -1.6213,0 -3.59915,-0.30761 -5.17854,0.0616 m -0.29592,8.15004 c -1.81831,0.61178 -1.5993,3.32119 0.14796,3.85103 0.91659,0.27795 2.15385,0.0699 3.10713,0.0699 h 6.65812 c 1.07477,0 2.71109,0.30439 3.69896,-0.1644 1.57193,-0.74593 1.6265,-3.22252 -0.14796,-3.7606 -0.91658,-0.27795 -2.15385,-0.0699 -3.10712,-0.0699 h -6.51017 c -1.14503,0 -2.75833,-0.29228 -3.84692,0.074 m -9.91321,7.98565 c -1.76078,0.53394 -1.97695,3.23566 -0.14796,3.85102 1.55982,0.5248 3.976,0.074 5.62242,0.074 h 12.57646 c 1.5415,0 4.63784,0.58755 5.91423,-0.36578 1.44495,-1.07923 0.70224,-3.42411 -1.0316,-3.61676 -4.99348,-0.55484 -10.35992,-0.0123 -15.38767,-0.0123 -2.24185,0 -5.40441,-0.57951 -7.54588,0.0699 m -5.62242,7.97742 c -1.78861,0.34778 -2.67663,2.9509 -0.73979,3.84692 0.95436,0.4415 2.23187,0.23837 3.25509,0.23837 h 6.95404 c 1.08431,0 2.54434,0.25411 3.551,-0.20961 1.9416,-0.8944 1.35969,-3.49622 -0.59183,-3.87568 -1.94244,-0.3777 -4.2352,-0.0575 -6.21425,-0.0575 -1.97905,0 -4.27182,-0.32016 -6.21426,0.0575 m 20.12234,0 c -1.93627,0.37649 -2.56411,3.01396 -0.59183,3.87568 0.84512,0.36925 1.91003,0.20961 2.81121,0.20961 1.96636,0 4.62738,0.46819 6.51017,-0.10275 1.70741,-0.51776 2.11003,-3.11265 0.29591,-3.81814 -0.95009,-0.36949 -2.11118,-0.22194 -3.10712,-0.22194 -1.88626,0 -4.06674,-0.30249 -5.91834,0.0575 m 3.551,25.83517 c -1.2605,0.005 -1.94851,0.64066 -1.47958,1.92346 l 1.47958,-0.29592 c 0,2.67984 0.25408,5.31334 -0.0123,7.98976 -0.0542,0.54466 -0.71805,2.30222 -0.23427,2.67146 0.77544,0.59187 2.32149,0.0534 2.45365,-0.89596 0.43388,-3.11667 -0.13563,-6.60642 -0.13563,-9.76526 0.85252,0.0896 2.18284,0.55096 2.95506,0.0534 0.43915,-0.28293 0.94457,-1.30034 0.37401,-1.72207 -0.4712,-0.34827 -2.65958,0.18906 -3.32907,0.18906 0.0155,-0.92007 0.18848,-2.39115 0.92474,-3.03725 1.24219,-1.09009 2.45623,0.0963 2.4783,1.40971 1.54845,-0.006 2.82478,-1.6945 1.32752,-2.89752 -2.96269,-2.38046 -6.7894,1.38484 -6.80198,4.3771 m -4.5867,-4.67301 c -1.7645,0.41638 -1.10898,3.27662 0.73979,2.76188 1.79909,-0.5009 1.26239,-3.23436 -0.73979,-2.76188 m -20.86214,11.18318 c -1.19614,0.0653 -4.22538,1.59431 -5.27718,0.54252 -0.38867,-0.38868 -0.34401,-1.64334 -0.34523,-2.17006 -0.005,-2.01185 0.0524,-4.07618 0.32879,-6.06629 0.14556,-1.04805 0.38498,-2.74496 -1.06859,-2.94684 -0.38455,-0.0534 -1.4091,-0.16641 -1.66864,0.18495 -0.36172,0.48968 0.15137,1.88561 0.18495,2.46597 0.13308,2.29968 -0.12261,4.51246 -0.14385,6.80608 -0.008,0.83879 -0.53798,2.91991 0.30825,3.41126 0.42445,0.24646 1.00008,0.10774 1.46725,0.17263 1.31735,0.18296 4.66203,0.76318 5.7375,-0.10686 0.76911,-0.6222 0.51875,-1.46054 0.47675,-2.29336 m 6.95405,-1.18367 c -0.14787,0.76508 -0.35473,1.52937 -1.03571,1.99744 -1.77245,1.21829 -3.24453,-0.95226 -2.81121,-2.58927 1.38226,0.50528 3.82171,0.0118 4.8703,-1.04804 1.1231,-1.13518 0.59529,-3.24332 -0.72747,-3.94145 -5.07243,-2.67713 -9.18297,6.00493 -5.03058,8.9145 1.5654,1.09686 4.43411,0.61647 5.70873,-0.72746 1.04283,-1.09954 0.43698,-2.45157 -0.97406,-2.60572 m 4.73467,3.69896 c 0.074,-1.46686 0.66176,-3.15188 1.92345,-3.99487 0.54063,1.26148 1.5628,3.16992 2.81121,3.83459 0.74317,0.39566 2.42203,0.39219 2.33857,-0.86309 -0.0315,-0.47413 -0.83061,-0.71018 -1.1549,-0.96173 -0.65831,-0.51066 -1.9932,-2.01581 -2.04265,-2.89752 -0.0588,-1.04856 2.32549,-1.79573 2.59749,-2.95917 0.23322,-0.99749 -1.23432,-2.15073 -2.13306,-1.52068 -0.38392,0.26914 -1.00793,2.34217 -1.23299,2.8523 h -0.29591 c -0.5443,-1.23373 -1.60701,-2.50623 -2.95917,-2.83175 -0.68762,-0.16554 -1.95857,0.0858 -1.89469,1.04393 0.071,1.06514 3.12775,1.43179 2.89752,2.97149 -0.0604,0.4037 -0.57455,0.68183 -0.85487,0.92063 -1.03518,0.88182 -3.70548,3.49576 -1.03571,4.23737 0.34753,0.0965 0.67687,0.15041 1.03571,0.1685 m 8.28566,-9.17342 c 0.31749,1.67912 0.4538,3.46856 0.28359,5.17855 -0.0986,0.99043 -0.57707,2.27517 -0.20961,3.25508 0.38998,1.03994 1.80935,0.7683 2.58928,0.44388 -0.34539,-1.28438 -0.56397,-2.81246 -0.43155,-4.14284 0.11907,-1.19622 0.72168,-2.81866 0.36168,-3.99487 -0.35389,-1.15621 -1.67614,-1.09051 -2.59339,-0.7398 m 11.83667,-0.14795 c 0.0192,1.13981 0.43566,2.26077 0.43566,3.40304 0,1.36854 -0.53022,3.11689 0.0205,4.43875 1.30085,3.12204 4.71765,0.27767 5.46213,-1.62754 h 0.14796 c -0.029,1.72341 -0.51414,3.93681 -1.58234,5.32239 -1.16445,1.51044 -2.39384,0.35875 -2.26458,-1.17956 -1.42647,-0.49747 -2.5318,1.06291 -1.90702,2.36734 0.64826,1.35343 2.75256,1.41263 3.97844,0.96994 3.62762,-1.30997 3.69665,-6.72747 4.0072,-9.84745 0.11276,-1.13278 0.57551,-3.01793 -0.60416,-3.75239 -0.41022,-0.2554 -1.48914,-0.36436 -1.8166,0.10276 -0.33571,0.47887 0.19717,1.61183 0.17262,2.17005 -0.0491,1.11765 -0.65448,2.46272 -1.22477,3.40304 -0.31696,0.52262 -1.24798,1.9238 -2.00155,1.52068 -0.54251,-0.29021 -0.62629,-1.27689 -0.60005,-1.81659 0.0723,-1.48753 1.45025,-5.06696 -0.7439,-5.56077 -0.49291,-0.11093 -0.98469,0.0614 -1.47959,0.0863 m -27.37229,1.21654 c 2.04126,-0.32603 2.90612,2.10668 0.59183,2.44953 -0.43717,0.0648 -1.50262,0.20661 -1.87414,-0.074 -0.9512,-0.7184 0.54024,-2.25703 1.28231,-2.37556 z"
       id="path2" /></g></svg>
